<svg width="930" height="213" viewBox="0 0 930 213" fill="none" xmlns="http://www.w3.org/2000/svg">
<g clip-path="url(#clip0_2006_23)">
<path d="M112.367 197.589C141.058 196.046 191.28 178.758 230.764 131.967C235.568 126.273 238.289 128.198 240.778 130.544C242.878 132.524 247.484 137.247 248.446 138.21C249.4 139.164 251.278 139.378 252.9 137.796C259.256 131.569 281.805 99.2357 283.587 97.0807C290.062 89.2716 297.364 95.4107 301.205 97.9872C306.407 101.486 308.833 100.739 311.243 98.8301C314.115 96.5558 315.006 95.7924 315.674 95.3232C318.657 93.2159 323.35 92.7069 325.99 96.2934C328.496 99.7049 380.969 172.476 446.829 191.728C447.362 191.887 448.07 193.644 446.081 193.294C414.989 187.855 370.175 176.476 320.518 111.251C319.221 109.55 318.959 108.739 316.803 110.417C314.648 112.094 311.005 113.605 310.289 113.844C309.573 114.082 306.392 115.482 301.659 113.613C299.718 112.842 295.542 109.764 294.182 108.683C293.116 107.824 291.581 107.824 290.619 109.494C289.656 111.164 267.138 143.005 262.588 146.838C258.039 150.671 251.087 156.897 238.869 147.792C237.239 146.575 236.586 146.019 234.272 148.023C223.216 157.581 185.052 203.497 111.922 199.935C110.61 199.871 109.83 197.724 112.367 197.589Z" fill="#ABC10D"/>
<path d="M102.496 129.693C102.496 118.313 110.657 110.154 122.04 110.154C133.422 110.154 141.583 118.313 141.583 129.693V175.076C160.108 154.138 168.372 125.478 167.64 106.743C164.594 28.5565 108.16 46.7035 85.0371 47.9679C88.3222 26.7355 95.5445 15.1729 103.992 7.8251C104.334 7.53087 104.413 7.02988 104.143 6.67203C101.558 3.19692 95.9422 0.612448 93.6832 0.0319366C93.381 -0.0475855 93.0707 0.0557932 92.8719 0.29436C81.4498 13.7495 78.5863 35.5306 77.7909 47.5384C52.7594 44.7472 5.0667 33.8209 0.143123 106.743C-2.2431 142.146 24.594 201.43 83.8917 201.708C90.5095 201.676 96.6978 200.873 102.488 199.426V129.693H102.496ZM122.04 59.6815C135.355 59.6815 144.589 68.6993 144.589 81.1525C144.589 93.6056 135.355 102.623 122.04 102.623C108.724 102.623 99.4897 93.6056 99.4897 81.1525C99.4897 68.7072 108.724 59.6815 122.04 59.6815Z" fill="#ABC10D"/>
<path d="M486.074 176.34L480.785 175.14C467.78 172.181 463.962 167.195 463.962 160.086C463.962 152.698 468.989 144.388 486.854 144.388C497.433 144.388 508.441 147.529 508.441 154.917C508.441 158.241 506.015 160.826 502.547 160.826C496.653 160.826 494.832 154.917 486.337 154.917C483.131 154.917 481.31 156.118 481.31 158.336C481.31 160.181 482.089 161.104 486.862 162.217L494.402 163.975C504.202 166.281 510.271 170.623 510.271 178.384C510.271 186.79 504.377 195.1 485.645 195.1C474.111 195.1 463.882 191.41 463.882 183.37C463.882 180.229 466.746 177.549 470.214 177.549C475.241 177.549 477.675 184.563 486.257 184.563C490.075 184.563 491.897 182.623 491.897 180.778C491.881 179.116 491.014 177.454 486.074 176.34Z" fill="#ABC10D"/>
<path d="M539.916 144.396C554.137 144.396 565.321 152.245 565.321 169.7C565.321 187.243 554.137 195.092 539.916 195.092C525.694 195.092 514.51 187.243 514.51 169.7C514.51 152.245 525.694 144.396 539.916 144.396ZM539.916 157.136C535.143 157.136 532.375 161.199 532.375 170.249C532.375 178.281 535.151 182.344 539.916 182.344C544.688 182.344 547.456 178.281 547.456 170.249C547.456 161.199 544.68 157.136 539.916 157.136Z" fill="#ABC10D"/>
<path d="M602.514 153.812C602.514 147.347 606.245 144.396 611.447 144.396C616.649 144.396 620.379 147.354 620.379 153.812V186.042C620.379 191.95 617.691 195.092 611.797 195.092C606.507 195.092 604.423 191.863 603.819 186.137H603.644C600.693 191.863 595.753 195.092 588.905 195.092C576.504 195.092 571.477 186.964 571.477 176.436V153.812C571.477 147.347 575.208 144.396 580.41 144.396C585.612 144.396 589.342 147.354 589.342 153.812V172.006C589.342 177.271 591.506 180.133 595.928 180.133C600.351 180.133 602.522 176.444 602.522 170.718V153.812H602.514Z" fill="#ABC10D"/>
<path d="M627.482 153.812C627.482 147.347 631.213 144.396 635.548 144.396C639.97 144.396 643.526 146.981 643.526 154.185V157.883H643.701C646.739 149.112 650.207 144.404 655.321 144.404C660.786 144.404 662.607 149.024 662.607 153.175C662.607 157.883 660.786 160.841 657.755 161.668L652.903 162.957C648.131 164.253 645.363 166.185 645.363 172.468V185.668C645.363 192.133 641.633 195.084 636.431 195.084C631.229 195.084 627.498 192.125 627.498 185.668V153.812H627.482Z" fill="#ABC10D"/>
<path d="M734.91 179.76C734.91 183.084 735.427 186.042 735.427 188.348C735.427 193.056 731.355 195.092 727.107 195.092C720.951 195.092 718.7 191.768 718.087 187.426C714.619 192.968 708.288 195.092 702.131 195.092C692.244 195.092 685.221 190.75 685.221 180.133C685.221 172.102 690.423 166.098 708.2 164.897C714.874 164.436 717.562 163.418 717.562 160.189C717.562 157.144 715.136 155.482 710.364 155.482C702.648 155.482 700.827 162.034 694.758 162.034C691.202 162.034 689.118 159.911 689.118 156.126C689.118 149.016 698.48 144.396 710.881 144.396C720.33 144.396 734.902 146.702 734.902 158.615V179.76H734.91ZM717.57 172.189C715.057 175.052 709.25 174.495 706.037 175.879C704.565 176.523 703.611 177.819 703.611 179.847C703.611 182.71 706.212 184.555 709.075 184.555C714.102 184.555 717.57 181.231 717.57 177.629V172.189Z" fill="#ABC10D"/>
<path d="M742.021 153.629C742.021 147.537 744.622 144.396 749.999 144.396C755.113 144.396 757.802 148.181 757.802 153.08H757.977C759.448 146.989 766.472 144.396 771.586 144.396C784.074 144.396 791.877 154.273 791.877 169.883C791.877 179.211 787.025 195.092 772.111 195.092C766.217 195.092 762.137 192.133 759.536 187.704H759.361V203.497C759.361 210.058 756.243 213.008 750.691 213.008C745.139 213.008 742.021 210.05 742.021 203.497V153.629ZM765.955 180.126C772.111 180.126 774.02 174.766 774.02 169.231C774.02 164.062 772.374 158.241 766.305 158.241C761.19 158.241 759.106 162.861 759.106 169.692C759.106 176.436 762.049 180.126 765.955 180.126Z" fill="#ABC10D"/>
<path d="M798.034 153.629C798.034 147.537 800.635 144.396 806.012 144.396C811.126 144.396 813.815 148.181 813.815 153.08H813.99C815.461 146.989 822.485 144.396 827.599 144.396C840.087 144.396 847.89 154.273 847.89 169.883C847.89 179.211 843.038 195.092 828.124 195.092C822.23 195.092 818.15 192.133 815.549 187.704H815.374V203.497C815.374 210.058 812.256 213.008 806.704 213.008C801.152 213.008 798.034 210.05 798.034 203.497V153.629ZM821.96 180.126C828.116 180.126 830.025 174.766 830.025 169.231C830.025 164.062 828.379 158.241 822.31 158.241C817.195 158.241 815.111 162.861 815.111 169.692C815.111 176.436 818.062 180.126 821.96 180.126Z" fill="#ABC10D"/>
<path d="M854.301 135.617C854.301 129.152 858.031 126.202 863.233 126.202C868.435 126.202 872.166 129.16 872.166 135.617V185.668C872.166 192.133 868.435 195.084 863.233 195.084C858.031 195.084 854.301 192.125 854.301 185.668V135.617Z" fill="#ABC10D"/>
<path d="M903.982 195.092C889.76 195.092 878.577 187.243 878.577 169.7C878.577 152.245 889.76 144.396 903.982 144.396C923.923 144.396 929.992 158.989 929.992 166.185C929.992 171.911 927.479 173.939 921.752 173.939H896.434C896.863 180.03 900.164 184.006 905.971 184.006C912.469 184.006 916.287 178.098 921.752 178.098C924.87 178.098 927.304 181.326 927.304 184.38C927.312 189.636 921.243 195.092 903.982 195.092ZM913.177 164.523C913.177 157.875 909.272 155.474 904.857 155.474C900.872 155.474 896.704 157.78 896.45 164.523H913.177Z" fill="#ABC10D"/>
<path d="M465.935 77.1762C465.935 70.9735 469.753 68.1346 475.066 68.1346C480.387 68.1346 484.197 70.9735 484.197 77.1762V107.768C484.197 113.971 480.387 116.81 475.066 116.81C469.745 116.81 465.935 113.971 465.935 107.768V77.1762ZM475.066 47.5622C479.854 47.5622 483.672 51.3713 483.672 56.1665C483.672 60.9537 479.862 64.7708 475.066 64.7708C470.278 64.7708 466.468 60.9537 466.468 56.1665C466.468 51.3713 470.278 47.5622 475.066 47.5622Z" fill="#ABC10D"/>
<path d="M492 77.1762C492 70.9735 495.818 68.1346 501.131 68.1346C506.453 68.1346 510.263 70.9735 510.263 77.1762V107.768C510.263 113.971 506.453 116.81 501.131 116.81C495.81 116.81 492 113.971 492 107.768V77.1762ZM501.139 47.5622C505.928 47.5622 509.746 51.3713 509.746 56.1665C509.746 60.9537 505.936 64.7708 501.139 64.7708C496.351 64.7708 492.541 60.9537 492.541 56.1665C492.533 51.3713 496.351 47.5622 501.139 47.5622Z" fill="#ABC10D"/>
<path d="M552.332 102.886C556.245 102.886 558.743 104.214 558.743 109.271C558.743 114.329 556.245 115.657 552.332 115.657H521.446C517.366 115.657 515.616 112.11 515.616 109.009C515.616 106.083 516.451 104.047 519.362 100.937L537.426 82.0509H523.856C519.943 82.0509 517.445 80.7229 517.445 75.6653C517.445 70.9655 519.529 69.2797 524.771 69.2797H551.91C556.237 69.2797 558.154 72.556 558.154 77.0808C558.154 80.0072 557.574 81.4227 555.243 83.9038L537.426 102.878H552.332V102.886Z" fill="#ABC10D"/>
<path d="M596.938 77.4148C596.938 71.0451 600.613 68.1346 605.744 68.1346C610.874 68.1346 614.549 71.0451 614.549 77.4148V109.176C614.549 114.997 611.9 118.098 606.086 118.098C600.876 118.098 598.824 114.909 598.227 109.271H598.06C595.157 114.909 590.281 118.098 583.536 118.098C571.318 118.098 566.363 110.09 566.363 99.7128V77.4148C566.363 71.0451 570.038 68.1346 575.168 68.1346C580.298 68.1346 583.973 71.0451 583.973 77.4148V95.3391C583.973 100.524 586.113 103.347 590.472 103.347C594.831 103.347 596.962 99.7049 596.962 94.0667V77.4148H596.938Z" fill="#ABC10D"/>
<path d="M652.132 90.8779C652.132 85.693 649.992 82.87 645.641 82.87C641.282 82.87 639.143 86.5121 639.143 92.1502V108.802C639.143 115.172 635.468 118.082 630.338 118.082C625.207 118.082 621.532 115.172 621.532 108.802V77.049C621.532 71.228 624.181 68.1266 629.996 68.1266C635.206 68.1266 637.258 71.3154 637.854 76.9535H638.029C640.932 71.3154 645.808 68.1266 652.553 68.1266C664.771 68.1266 669.726 76.1345 669.726 86.5121V108.81C669.726 115.18 666.051 118.09 660.921 118.09C655.791 118.09 652.116 115.18 652.116 108.81V90.8779H652.132Z" fill="#ABC10D"/>
<path d="M724.936 102.981C724.936 106.257 725.453 109.168 725.453 111.442C725.453 116.086 721.436 118.09 717.252 118.09C711.183 118.09 708.964 114.814 708.367 110.536C704.947 115.999 698.711 118.09 692.642 118.09C682.898 118.09 675.978 113.812 675.978 103.347C675.978 95.4266 681.109 89.5181 698.624 88.3332C705.202 87.8799 707.85 86.8779 707.85 83.6891C707.85 80.6832 705.456 79.045 700.755 79.045C693.151 79.045 691.353 85.5102 685.372 85.5102C681.872 85.5102 679.82 83.4187 679.82 79.6891C679.82 72.6832 689.047 68.1346 701.264 68.1346C710.579 68.1346 724.936 70.4089 724.936 82.1464V102.981ZM707.842 95.522C705.361 98.345 699.642 97.7963 696.476 99.1641C695.02 99.8003 694.082 101.073 694.082 103.077C694.082 105.9 696.643 107.721 699.467 107.721C704.422 107.721 707.842 104.444 707.842 100.898V95.522Z" fill="#ABC10D"/>
</g>
<defs>
<clipPath id="clip0_2006_23">
<rect width="930" height="213" fill="white"/>
</clipPath>
</defs>
</svg>
