<svg width="429" height="336" viewBox="0 0 429 336" fill="none" xmlns="http://www.w3.org/2000/svg">
<g clip-path="url(#clip0_2006_2)">
<path d="M20.6545 305.454L16.246 304.455C5.40769 301.993 2.22714 297.838 2.22714 291.915C2.22714 285.763 6.42211 278.834 21.3104 278.834C30.1275 278.834 39.303 281.448 39.303 287.608C39.303 290.375 37.2818 292.533 34.3911 292.533C29.4792 292.533 27.9613 287.608 20.8757 287.608C18.1985 287.608 16.6807 288.607 16.6807 290.459C16.6807 291.999 17.329 292.769 21.3028 293.691L27.5876 295.155C35.7564 297.076 40.8132 300.697 40.8132 307.161C40.8132 314.167 35.9013 321.089 20.2884 321.089C10.6781 321.089 2.15087 318.009 2.15087 311.316C2.15087 308.701 4.53819 306.468 7.4289 306.468C11.6239 306.468 13.6451 312.315 20.7994 312.315C23.9799 312.315 25.4978 310.699 25.4978 309.159C25.4978 307.764 24.7732 306.376 20.6545 305.454Z" fill="#ABC10D"/>
<path d="M65.533 278.834C77.3857 278.834 86.7061 285.374 86.7061 299.919C86.7061 314.541 77.3857 321.081 65.533 321.081C53.6803 321.081 44.3598 314.541 44.3598 299.919C44.3598 285.374 53.6803 278.834 65.533 278.834ZM65.533 289.453C61.5592 289.453 59.2482 292.837 59.2482 300.377C59.2482 307.07 61.5592 310.455 65.533 310.455C69.5068 310.455 71.8178 307.07 71.8178 300.377C71.8254 292.837 69.5144 289.453 65.533 289.453Z" fill="#ABC10D"/>
<path d="M117.711 286.678C117.711 281.296 120.815 278.834 125.155 278.834C129.495 278.834 132.599 281.296 132.599 286.678V313.534C132.599 318.459 130.357 321.074 125.445 321.074C121.036 321.074 119.305 318.383 118.794 313.611H118.649C116.193 318.383 112.074 321.074 106.361 321.074C96.0266 321.074 91.8316 314.304 91.8316 305.53V286.678C91.8316 281.296 94.9359 278.834 99.2758 278.834C103.616 278.834 106.72 281.296 106.72 286.678V301.833C106.72 306.216 108.528 308.602 112.212 308.602C115.895 308.602 117.703 305.522 117.703 300.758V286.678H117.711Z" fill="#ABC10D"/>
<path d="M138.525 286.678C138.525 281.296 141.63 278.834 145.245 278.834C148.929 278.834 151.896 280.991 151.896 286.99V290.07H152.041C154.573 282.76 157.464 278.834 161.727 278.834C166.281 278.834 167.799 282.683 167.799 286.144C167.799 290.07 166.281 292.533 163.749 293.226L159.698 294.301C155.725 295.376 153.414 296.992 153.414 302.229V313.229C153.414 318.611 150.309 321.074 145.97 321.074C141.63 321.074 138.525 318.611 138.525 313.229V286.678Z" fill="#ABC10D"/>
<path d="M228.069 308.297C228.069 311.065 228.504 313.527 228.504 315.455C228.504 319.381 225.109 321.074 221.563 321.074C216.43 321.074 214.553 318.307 214.042 314.686C211.152 319.298 205.874 321.074 200.748 321.074C192.511 321.074 186.653 317.46 186.653 308.61C186.653 301.917 190.985 296.916 205.805 295.917C211.373 295.528 213.608 294.682 213.608 291.991C213.608 289.453 211.586 288.065 207.613 288.065C201.183 288.065 199.665 293.531 194.601 293.531C191.641 293.531 189.902 291.763 189.902 288.607C189.902 282.683 197.705 278.834 208.04 278.834C215.919 278.834 228.061 280.755 228.061 290.68V308.297H228.069ZM213.608 301.993C211.51 304.379 206.667 303.914 203.997 305.073C202.769 305.614 201.976 306.689 201.976 308.381C201.976 310.767 204.142 312.307 206.53 312.307C210.725 312.307 213.615 309.54 213.615 306.536V301.993H213.608Z" fill="#ABC10D"/>
<path d="M233.987 286.525C233.987 281.448 236.154 278.834 240.638 278.834C244.902 278.834 247.144 281.99 247.144 286.068H247.289C248.517 280.991 254.375 278.834 258.639 278.834C269.05 278.834 275.548 287.067 275.548 300.072C275.548 307.84 271.498 321.074 259.073 321.074C254.161 321.074 250.76 318.611 248.594 314.922H248.449V328.079C248.449 333.545 245.848 336.008 241.218 336.008C236.588 336.008 233.987 333.545 233.987 328.079V286.525ZM253.933 308.61C259.066 308.61 260.652 304.15 260.652 299.531C260.652 295.224 259.279 290.375 254.222 290.375C249.959 290.375 248.22 294.225 248.22 299.919C248.227 305.53 250.683 308.61 253.933 308.61Z" fill="#ABC10D"/>
<path d="M280.674 286.525C280.674 281.448 282.84 278.834 287.325 278.834C291.588 278.834 293.831 281.99 293.831 286.068H293.975C295.203 280.991 301.061 278.834 305.325 278.834C315.736 278.834 322.234 287.067 322.234 300.072C322.234 307.84 318.184 321.074 305.76 321.074C300.848 321.074 297.446 318.611 295.28 314.922H295.135V328.079C295.135 333.545 292.534 336.008 287.904 336.008C283.275 336.008 280.674 333.545 280.674 328.079V286.525ZM300.619 308.61C305.752 308.61 307.338 304.15 307.338 299.531C307.338 295.224 305.965 290.375 300.909 290.375C296.645 290.375 294.906 294.225 294.906 299.919C294.914 305.53 297.37 308.61 300.619 308.61Z" fill="#ABC10D"/>
<path d="M327.573 271.523C327.573 266.141 330.678 263.679 335.018 263.679C339.357 263.679 342.462 266.141 342.462 271.523V313.229C342.462 318.611 339.357 321.074 335.018 321.074C330.678 321.074 327.573 318.611 327.573 313.229V271.523Z" fill="#ABC10D"/>
<path d="M368.989 321.074C357.136 321.074 347.816 314.533 347.816 299.912C347.816 285.367 357.136 278.826 368.989 278.826C385.609 278.826 390.673 290.985 390.673 296.984C390.673 301.757 388.576 303.449 383.809 303.449H362.704C363.063 308.526 365.809 311.834 370.652 311.834C376.075 311.834 379.255 306.91 383.809 306.91C386.41 306.91 388.431 309.601 388.431 312.139C388.423 316.53 383.366 321.074 368.989 321.074ZM376.647 295.605C376.647 290.063 373.398 288.065 369.706 288.065C366.381 288.065 362.91 289.986 362.697 295.605H376.647Z" fill="#ABC10D"/>
<path d="M107.75 189.414C135.261 187.935 183.419 171.362 221.281 126.507C225.887 121.049 228.496 122.894 230.883 125.142C232.897 127.041 237.313 131.569 238.236 132.491C239.151 133.406 240.951 133.612 242.507 132.095C248.601 126.126 270.224 95.1299 271.933 93.064C278.141 85.578 285.143 91.4631 288.827 93.933C293.815 97.2872 296.142 96.5706 298.453 94.7411C301.206 92.5608 302.06 91.829 302.701 91.3793C305.561 89.3591 310.061 88.8712 312.594 92.3093C314.996 95.5796 365.313 165.34 428.466 183.795C428.977 183.948 429.656 185.632 427.749 185.297C397.934 180.083 354.963 169.174 307.346 106.649C306.103 105.017 305.851 104.24 303.784 105.848C301.717 107.457 298.224 108.905 297.537 109.134C296.851 109.362 293.8 110.704 289.262 108.913C287.401 108.173 283.397 105.223 282.092 104.186C281.07 103.363 279.598 103.363 278.675 104.964C277.752 106.565 256.16 137.088 251.797 140.762C247.434 144.437 240.768 150.406 229.053 141.677C227.489 140.511 226.864 139.977 224.644 141.898C214.042 151.061 177.447 195.078 107.322 191.662C106.064 191.601 105.317 189.543 107.75 189.414Z" fill="#ABC10D"/>
<path d="M98.2841 124.327C98.2841 113.418 106.11 105.597 117.024 105.597C127.939 105.597 135.764 113.418 135.764 124.327V167.832C153.528 147.761 161.453 120.287 160.751 102.326C157.83 27.3751 103.715 44.7712 81.5424 45.9833C84.6925 25.6294 91.618 14.5452 99.7181 7.50139C100.046 7.21933 100.122 6.73907 99.863 6.39603C97.3841 3.06469 91.9993 0.587153 89.8332 0.0306594C89.5434 -0.0455725 89.2459 0.053529 89.0552 0.282225C78.1025 13.1807 75.3568 34.0606 74.594 45.5716C50.5912 42.8959 4.85845 32.4216 0.137211 102.326C-2.15095 136.265 23.5833 193.096 80.4441 193.363C86.7899 193.332 92.7239 192.562 98.2765 191.175V124.327H98.2841ZM117.024 57.2123C129.792 57.2123 138.647 65.857 138.647 77.7949C138.647 89.7328 129.792 98.3775 117.024 98.3775C104.256 98.3775 95.4011 89.7328 95.4011 77.7949C95.4011 65.8646 104.256 57.2123 117.024 57.2123Z" fill="#ABC10D"/>
<path d="M3.97378 223.017C3.97378 217.711 7.23822 215.279 11.7917 215.279C16.3451 215.279 19.6096 217.703 19.6096 223.017V249.179C19.6096 254.485 16.3451 256.917 11.7917 256.917C7.23822 256.917 3.97378 254.493 3.97378 249.179V223.017ZM11.784 197.692C15.8798 197.692 19.1443 200.955 19.1443 205.049C19.1443 209.142 15.8798 212.405 11.784 212.405C7.68823 212.405 4.42378 209.142 4.42378 205.049C4.42378 200.955 7.68823 197.692 11.784 197.692Z" fill="#ABC10D"/>
<path d="M26.2757 223.017C26.2757 217.711 29.5402 215.279 34.0936 215.279C38.6471 215.279 41.9115 217.703 41.9115 223.017V249.179C41.9115 254.485 38.6471 256.917 34.0936 256.917C29.5402 256.917 26.2757 254.493 26.2757 249.179V223.017ZM34.086 197.692C38.1818 197.692 41.4462 200.955 41.4462 205.049C41.4462 209.142 38.1818 212.405 34.086 212.405C29.9902 212.405 26.7257 209.142 26.7257 205.049C26.7334 200.955 29.9902 197.692 34.086 197.692Z" fill="#ABC10D"/>
<path d="M77.8814 245.01C81.2298 245.01 83.3654 246.145 83.3654 250.468C83.3654 254.79 81.2298 255.926 77.8814 255.926H51.4608C47.9675 255.926 46.4726 252.892 46.4726 250.239C46.4726 247.739 47.1819 245.993 49.676 243.34L65.1287 227.186H53.5277C50.1794 227.186 48.0438 226.051 48.0438 221.728C48.0438 217.711 49.8209 216.27 54.3133 216.27H77.5306C81.2374 216.27 82.8696 219.075 82.8696 222.94C82.8696 225.441 82.3738 226.653 80.3755 228.78L65.1364 245.01H77.8814Z" fill="#ABC10D"/>
<path d="M113.066 223.017C113.066 217.711 116.132 215.279 120.403 215.279C124.674 215.279 127.741 217.703 127.741 223.017V249.477C127.741 254.333 125.529 256.909 120.693 256.909C116.345 256.909 114.637 254.256 114.141 249.553H113.996C111.571 254.256 107.513 256.909 101.884 256.909C91.7019 256.909 87.568 250.239 87.568 241.594V223.017C87.568 217.711 90.6341 215.279 94.9054 215.279C99.1766 215.279 102.243 217.703 102.243 223.017V237.958C102.243 242.28 104.02 244.628 107.658 244.628C111.289 244.628 113.073 241.594 113.073 236.891V223.017H113.066Z" fill="#ABC10D"/>
<path d="M159.065 234.246C159.065 229.923 157.288 227.575 153.65 227.575C150.02 227.575 148.235 230.609 148.235 235.313V249.187C148.235 254.493 145.176 256.925 140.897 256.925C136.626 256.925 133.56 254.5 133.56 249.187V222.727C133.56 217.871 135.772 215.294 140.615 215.294C144.963 215.294 146.671 217.947 147.167 222.651H147.312C149.737 217.947 153.795 215.294 159.416 215.294C169.599 215.294 173.733 221.965 173.733 230.609V249.187C173.733 254.493 170.666 256.925 166.395 256.925C162.124 256.925 159.058 254.5 159.058 249.187V234.246H159.065Z" fill="#ABC10D"/>
<path d="M219.748 244.331C219.748 247.06 220.175 249.484 220.175 251.383C220.175 255.247 216.826 256.917 213.341 256.917C208.284 256.917 206.43 254.188 205.935 250.62C203.09 255.171 197.888 256.917 192.831 256.917C184.708 256.917 178.942 253.349 178.942 244.628C178.942 238.034 183.213 233.102 197.819 232.119C203.303 231.738 205.515 230.907 205.515 228.254C205.515 225.753 203.517 224.389 199.604 224.389C193.266 224.389 191.771 229.771 186.783 229.771C183.862 229.771 182.153 228.025 182.153 224.915C182.153 219.075 189.841 215.287 200.031 215.287C207.796 215.287 219.763 217.185 219.763 226.965V244.331H219.748ZM205.5 238.111C203.433 240.458 198.666 240.009 196.027 241.145C194.814 241.678 194.036 242.738 194.036 244.407C194.036 246.755 196.172 248.272 198.521 248.272C202.655 248.272 205.5 245.543 205.5 242.585V238.111Z" fill="#ABC10D"/>
</g>
<defs>
<clipPath id="clip0_2006_2">
<rect width="429" height="336" fill="white"/>
</clipPath>
</defs>
</svg>
